# xmcd
#
# Track frame offsets:
# 150
# 8625
# 23134
# 35004
# 46178
# 58894
# 66461
# 80051
# 93917
# 103424
# 118532
# 132458
# 149775
# 160200
# 174454
# 186993
# 198502
#
# Disc length: 2813 seconds
#
#
# Revision: 0
# Processed by: cddbd v1.5.1PL0 Copyright (c) Steve Scherf et al.
# Submitted via: FreeRIP 2.91 
#
DISCID=fe0afb11
DTITLE=Sons of Cisco - Fandango
DYEAR=1900
DGENRE=Country
TTITLE0=Red River Valley
TTITLE1=Cotton Eyed Joe
TTITLE2=Maria Elena
TTITLE3=Goodbye Old Paint
TTITLE4=Dark Flowers
TTITLE5=Home on the Range
TTITLE6=Shenandoah
TTITLE7=Oh' Susanna!
TTITLE8=The Streets of Laredo
TTITLE9=You Belong to My Heart
TTITLE10=Strawberry Roan
TTITLE11=Golondrinas
TTITLE12=Sad and Lonely
TTITLE13=Big Island Cowboys
TTITLE14=El Contrabando de El Paso
TTITLE15=Jesse James
TTITLE16=Blink and Miss It Texas
EXTD=Cowboy Guitar
EXTT0=
EXTT1=
EXTT2=
EXTT3=
EXTT4=
EXTT5=
EXTT6=
EXTT7=
EXTT8=
EXTT9=
EXTT10=
EXTT11=
EXTT12=
EXTT13=
EXTT14=
EXTT15=
EXTT16=
PLAYORDER=
